<svg xmlns="http://www.w3.org/2000/svg" width="26" height="21.398"><defs><clipPath id="a"><path class="a" d="M0 0h26v21.398H0z"/></clipPath><style>.a{fill:#fff}</style></defs><g clip-path="url(#a)"><path class="a" d="M13.63 21.4c-1.4-.041-2.866-.051-4.329-.136-1.267-.074-2.53-.22-3.793-.36a49.137 49.137 0 01-2.476-.35c-.663-.108-1.32-.255-1.981-.381-.143-.027-.2-.1-.223-.245-.1-.535-.232-1.063-.314-1.6-.131-.854-.272-1.708-.335-2.567A61.536 61.536 0 010 11.8a24.513 24.513 0 01.3-4.12C.466 6.636.654 5.6.844 4.555a.266.266 0 01.178-.164c.62-.114 1.242-.222 1.865-.315.976-.145 1.953-.276 2.929-.416.33-.048.658-.105.984-.175a.288.288 0 00.154-.157A10.868 10.868 0 019.184.273.486.486 0 019.47.155a39.867 39.867 0 015.114-.122c.66.027 1.319.076 1.978.126a.448.448 0 01.262.121 10.442 10.442 0 012.135 2.886.742.742 0 00.711.488c1.32.138 2.635.324 3.95.5.46.062.916.149 1.371.238a.252.252 0 01.164.154c.12.552.247 1.1.332 1.662.131.853.272 1.707.334 2.566.1 1.324.168 2.653.178 3.98a24.433 24.433 0 01-.3 4.1c-.17 1.044-.357 2.085-.547 3.125a.278.278 0 01-.178.177c-.816.165-1.633.332-2.454.469q-1.158.193-2.326.328c-.843.1-1.689.187-2.536.241-1.319.083-2.64.134-4.03.2m-.621-16.86a7.252 7.252 0 107.246 7.266 7.243 7.243 0 00-7.246-7.264"/><path class="a" d="M18.496 11.781a5.5 5.5 0 11-5.448-5.5 5.506 5.506 0 015.448 5.5"/></g></svg>