<svg xmlns="http://www.w3.org/2000/svg" width="29.365" height="29.365"><path d="M8.81 23.492a2.937 2.937 0 102.937 2.937 2.933 2.933 0 00-2.937-2.937zM0 0v2.937h2.937l5.285 11.144-1.982 3.6a2.839 2.839 0 00-.367 1.41 2.945 2.945 0 002.937 2.933h17.619v-2.936h-17a.364.364 0 01-.367-.367l.044-.176 1.321-2.393h10.936a2.923 2.923 0 002.569-1.512l5.257-9.53a1.434 1.434 0 00.176-.7A1.473 1.473 0 0027.9 2.937H6.181L4.8 0H0zm23.492 23.492a2.937 2.937 0 102.937 2.937 2.933 2.933 0 00-2.937-2.937z"/></svg>