<svg xmlns="http://www.w3.org/2000/svg" width="124.884" height="45.096"><path d="M122.671 17.685a49.329 49.329 0 00-13.387-11.284l-.018-.018A48.067 48.067 0 0093.001.199c-3.079-.516-4.562.073-5.23.48-.667.387-1.911 1.4-3.024 4.375a51.339 51.339 0 00-2.876 17.469v.018a51 51 0 002.876 17.483c1.113 2.992 2.357 3.989 3.024 4.394.668.387 2.151 1 5.23.48a48.264 48.264 0 0016.265-6.2l.018-.018a49.329 49.329 0 0013.387-11.279c1.966-2.473 2.208-4.08 2.208-4.855s-.224-2.38-2.208-4.856" fill="#fff"/><text transform="translate(0 30.741)" font-family="Tajawal-Bold,Tajawal" font-weight="700" font-size="28" fill="#fff"><tspan x="0" y="0">Direct</tspan></text><text transform="translate(87.093 29.325)" fill="#ee3163" font-size="21" font-family="Tajawal-Bold,Tajawal" font-weight="700"><tspan x="0" y="0">UP</tspan></text></svg>