<svg xmlns="http://www.w3.org/2000/svg" width="36.655" height="36.645"><defs><style>.a{fill:#fff}</style></defs><path class="a" d="M8.123 22.143l-1.276 4.758-4.663.1a18.358 18.358 0 01-.136-17.113l4.151.773 1.818 4.126a10.937 10.937 0 00.1 7.363zM36.331 14.897a18.318 18.318 0 01-6.532 17.714l-5.229-.267-.74-4.614a10.922 10.922 0 004.7-5.577h-9.8v-7.249h17.6z"/><path class="a" d="M29.798 32.61a18.332 18.332 0 01-27.615-5.607l5.939-4.862a10.9 10.9 0 0015.705 5.58zM30.025 4.213l-5.939 4.864a10.9 10.9 0 00-16.061 5.707L2.05 9.896a18.329 18.329 0 0127.975-5.679z"/></svg>