<svg xmlns="http://www.w3.org/2000/svg" width="37" height="38"><defs><clipPath id="a"><path transform="translate(-.129 -.169)" d="M0 0h37v38H0z"/></clipPath><style>.b{fill:#fff}</style></defs><g transform="translate(.129 .169)" clip-path="url(#a)"><path class="b" d="M25.009.108H10.952A11.716 11.716 0 00-.763 11.821V25.88A11.716 11.716 0 0010.95 37.594h14.059a11.716 11.716 0 0011.714-11.713V11.823A11.716 11.716 0 0025.01.108zm8.2 25.772a8.21 8.21 0 01-8.2 8.2H10.952a8.21 8.21 0 01-8.2-8.2V11.823a8.21 8.21 0 018.2-8.2h14.057a8.21 8.21 0 018.2 8.2z"/><path class="b" d="M17.98 9.48a9.372 9.372 0 109.372 9.372A9.372 9.372 0 0017.98 9.48zm0 15.23a5.858 5.858 0 115.858-5.858 5.858 5.858 0 01-5.858 5.858z"/><circle class="b" cx="1.249" cy="1.249" r="1.249" transform="translate(26.805 7.528)"/></g></svg>