<svg xmlns="http://www.w3.org/2000/svg" width="31.289" height="32.167"><path d="M27.597 17.659a12.533 12.533 0 00.113-1.576 12.534 12.534 0 00-.113-1.576l3.394-2.654a.811.811 0 00.193-1.029l-3.217-5.565a.808.808 0 00-.981-.354l-4 1.608a11.751 11.751 0 00-2.718-1.576L19.657.675A.784.784 0 0018.864 0h-6.435a.784.784 0 00-.788.675l-.612 4.263a12.357 12.357 0 00-2.718 1.576l-4-1.608a.785.785 0 00-.981.354L.111 10.824a.793.793 0 00.193 1.029l3.394 2.654a12.755 12.755 0 00-.113 1.576 12.755 12.755 0 00.113 1.576L.304 20.313a.811.811 0 00-.193 1.029l3.218 5.565a.808.808 0 00.981.354l4-1.608a11.75 11.75 0 002.719 1.576l.611 4.262a.784.784 0 00.788.675h6.433a.784.784 0 00.788-.675l.611-4.262a12.356 12.356 0 002.718-1.576l4 1.608a.785.785 0 00.981-.354l3.217-5.565a.811.811 0 00-.193-1.029zm-11.95 4.053a5.629 5.629 0 115.629-5.629 5.635 5.635 0 01-5.628 5.629z"/></svg>