<svg xmlns="http://www.w3.org/2000/svg" width="53.524" height="55.025"><path d="M47.21 30.209a21.439 21.439 0 00.193-2.7 21.44 21.44 0 00-.193-2.7l5.805-4.54a1.388 1.388 0 00.33-1.761L47.842 9a1.383 1.383 0 00-1.678-.605l-6.851 2.751a20.1 20.1 0 00-4.65-2.7l-1.045-7.29A1.342 1.342 0 0032.27 0H21.265a1.342 1.342 0 00-1.348 1.156l-1.045 7.291a21.138 21.138 0 00-4.65 2.7L7.371 8.391A1.342 1.342 0 005.693 9l-5.5 9.519a1.356 1.356 0 00.33 1.761l5.806 4.536a21.819 21.819 0 00-.193 2.7 21.819 21.819 0 00.193 2.7l-5.805 4.54a1.388 1.388 0 00-.33 1.761l5.5 9.519a1.383 1.383 0 001.678.605l6.851-2.751a20.1 20.1 0 004.65 2.7l1.045 7.291a1.342 1.342 0 001.348 1.156H32.27a1.342 1.342 0 001.348-1.156l1.045-7.291a21.137 21.137 0 004.65-2.7l6.851 2.751a1.342 1.342 0 001.678-.605l5.5-9.519a1.388 1.388 0 00-.33-1.761zm-20.442 6.933a9.629 9.629 0 119.629-9.629 9.64 9.64 0 01-9.629 9.629z" fill="#fff"/></svg>