<svg xmlns="http://www.w3.org/2000/svg" width="38" height="38"><defs><clipPath id="a"><path transform="translate(-.147 -.169)" d="M0 0h38v38H0z"/></clipPath></defs><g transform="translate(.147 .169)" clip-path="url(#a)"><path d="M37.701 6.604a16.022 16.022 0 01-4.428 1.214 7.642 7.642 0 003.381-4.242 15.358 15.358 0 01-4.873 1.86 7.685 7.685 0 00-13.293 5.258 7.913 7.913 0 00.177 1.753 21.752 21.752 0 01-15.84-8.043 7.688 7.688 0 002.361 10.277 7.59 7.59 0 01-3.471-.946v.081a7.721 7.721 0 006.156 7.548 7.67 7.67 0 01-2.019.252 6.8 6.8 0 01-1.456-.13 7.758 7.758 0 007.182 5.353 15.442 15.442 0 01-9.529 3.277 14.392 14.392 0 01-1.834-.105 21.635 21.635 0 0011.789 3.449 21.722 21.722 0 0021.874-21.869c0-.34-.012-.668-.027-.993a15.33 15.33 0 003.85-3.994z" fill="#fff"/></g></svg>