<svg xmlns="http://www.w3.org/2000/svg" width="61" height="27"><defs><style>.b{fill:#fff}</style></defs><g transform="translate(-1496 -1149)"><rect width="61" height="26" rx="13" transform="translate(1496 1149)" fill="#9202b7"/><path class="b" d="M1534.602 1169.611c-.23.182-.44.352-.655.514a2.375 2.375 0 01-1.955.443c-.246-.048-.4-.124-.448-.409a2.564 2.564 0 01.1-1.4 3.762 3.762 0 01.609-.95c.04-.048.082-.1.121-.143s.077-.1.115-.144a.825.825 0 01-.032-.049c-.3.125-.607.228-.889.379a2.624 2.624 0 00-1.295 2c-.086.463-.135.933-.207 1.4-.049.319-.107.637-.163.966.123-.027.235-.056.35-.076.78-.133 1.559-.262 2.339-.4a2.367 2.367 0 001.17-.576 2.714 2.714 0 00.84-1.555z"/><path class="b" d="M1529.46 1164.887c.139-.339.255-.651.392-.953a14.252 14.252 0 011.2-2.12 4.447 4.447 0 012.2-1.719 6.271 6.271 0 012.639-.384.238.238 0 00.175-.085 19.385 19.385 0 012.583-2.905 14.132 14.132 0 013.466-2.36 11.18 11.18 0 012.104-.76 9.32 9.32 0 012.735-.282c.514.028 1.026.1 1.539.145.094.009.132.052.147.145a10.162 10.162 0 01.085 2.9 13.715 13.715 0 01-.277 1.487 11.259 11.259 0 01-1.841 3.93c-.182.261-.419.484-.593.748a8.984 8.984 0 01-1.088 1.265 18.906 18.906 0 01-2.445 2.1.192.192 0 00-.093.191 5.977 5.977 0 01-.972 3.768 3.95 3.95 0 01-.994.962 12.526 12.526 0 01-2.67 1.483c-.168.071-.341.127-.534.2a13.258 13.258 0 00.195-4.168c-.2.083-.375.172-.56.231a6.339 6.339 0 01-.811.219.948.948 0 01-.838-.29 179.845 179.845 0 01-1.744-1.752 1.025 1.025 0 01-.231-1.059c.091-.324.225-.637.34-.955.019-.054.04-.106.066-.177a13.37 13.37 0 00-4.175.195zm11.453-5.718a2.024 2.024 0 102.041-2.026 2.026 2.026 0 00-2.041 2.026z"/><path class="b" d="M1534.602 1169.61a2.715 2.715 0 01-.843 1.553 2.367 2.367 0 01-1.17.576c-.778.136-1.559.264-2.339.4-.115.019-.227.049-.35.076.056-.329.115-.647.163-.966.072-.467.121-.937.207-1.4a2.624 2.624 0 011.295-2c.283-.151.592-.255.889-.379a.825.825 0 01.032.049c-.038.048-.076.1-.115.144s-.082.1-.121.143a3.761 3.761 0 00-.609.95 2.565 2.565 0 00-.1 1.4c.043.285.2.362.448.409a2.38 2.38 0 001.955-.443c.22-.159.428-.33.658-.512z"/><text transform="translate(1504 1169)" font-size="21" font-family="Tajawal-Bold,Tajawal" font-weight="700" fill="#fff"><tspan x="0" y="0">UP</tspan></text></g></svg>