<svg xmlns="http://www.w3.org/2000/svg" width="10.981" height="9.439"><g fill="none"><path d="M5.491 4.492A2.256 2.256 0 103.02 2.246a2.324 2.324 0 002.471 2.246zm0 .829C3.691 5.321 0 5.944 0 7.598v.455a1.411 1.411 0 001.435 1.385h8.1a1.42 1.42 0 001.444-1.395v-.446c.003-1.653-3.68-2.276-5.488-2.276z"/><path d="M5.491 1c-.838 0-1.47.535-1.47 1.246 0 .71.632 1.246 1.47 1.246.839 0 1.471-.536 1.471-1.246S6.33 1 5.492 1m0 5.32c-.81 0-2.09.146-3.121.472-1.026.324-1.37.689-1.37.805v.456c0 .212.195.385.434.385h8.102c.245 0 .445-.177.445-.394v-.447c0-.116-.345-.48-1.37-.805-1.032-.326-2.31-.471-3.12-.471m0-6.321c1.4 0 2.47.973 2.47 2.246 0 1.272-1.07 2.246-2.47 2.246-1.4 0-2.472-.974-2.472-2.246C3.02.973 4.091 0 5.491 0zm0 5.32c1.803 0 5.49.624 5.49 2.277v.447c0 .77-.647 1.394-1.445 1.394H1.435C.643 9.438 0 8.818 0 8.053v-.456c0-1.653 3.687-2.276 5.491-2.276z" fill="#7f869c"/></g></svg>