<svg xmlns="http://www.w3.org/2000/svg" width="155" height="37"><defs><linearGradient id="a" x1=".5" y1=".689" x2=".5" y2="-.267" gradientUnits="objectBoundingBox"><stop offset="0" stop-color="#30ba28"/><stop offset="1" stop-color="#91ff8b"/></linearGradient><clipPath id="b"><path class="a" d="M0 0h29.887v30.175H0z"/></clipPath><style>.a{fill:#fff}</style></defs><rect width="155" height="37" rx="18.5" fill="url(#a)"/><text transform="translate(141 25)" font-size="19" font-family="Tajawal-Bold,Tajawal" font-weight="700" fill="#fff"><tspan x="-87.4" y="0">WhatsApp</tspan></text><g clip-path="url(#b)" transform="translate(20 3)"><path class="a" d="M.2 30.175l.359-1.457c.49-1.976.983-3.952 1.465-5.931a.56.56 0 00-.053-.375A14.15 14.15 0 01.054 16.4 14.655 14.655 0 015.877 3.068 14.138 14.138 0 0115.29.008a14.567 14.567 0 0111.552 5.907 14.16 14.16 0 013.027 9.573 14.592 14.592 0 01-7.157 12.224 14.356 14.356 0 01-8.555 2.169 14.6 14.6 0 01-6.27-1.75.517.517 0 00-.426-.043Q3.983 29.1.5 30.1c-.08.023-.162.042-.3.077m3.606-3.712c1.345-.388 2.639-.755 3.928-1.139a.68.68 0 01.626.093 12.089 12.089 0 008.787 1.832A12.358 12.358 0 0027.467 14a11.892 11.892 0 00-5.02-8.987 12.032 12.032 0 00-11.291-1.769 12.416 12.416 0 00-6.388 18.643.564.564 0 01.068.39c-.137.616-.3 1.226-.449 1.838l-.579 2.347"/><path class="a" d="M19.007 21.667a9.95 9.95 0 01-3.532-.8 12.981 12.981 0 01-7.921-8.835 3.48 3.48 0 012.085-4.273 1.224 1.224 0 011.653.578c.39.873.727 1.772 1.05 2.673a1.351 1.351 0 01-.392 1.539 6.807 6.807 0 00-.671.753.366.366 0 00-.044.305 6.754 6.754 0 002.013 2.674 13.106 13.106 0 003.351 2.038.262.262 0 00.347-.074c.388-.42.784-.833 1.182-1.245a1.148 1.148 0 011.523-.311c.741.358 1.459.764 2.175 1.171a1.093 1.093 0 01.555 1.105 2.565 2.565 0 01-2.354 2.59c-.372.066-.751.087-1.019.117"/></g></svg>