<svg xmlns="http://www.w3.org/2000/svg" width="37" height="38"><defs><clipPath id="a"><path transform="translate(.11 -.169)" d="M0 0h37v38H0z"/></clipPath></defs><g transform="translate(-.11 .169)" clip-path="url(#a)"><path d="M18.272 32.661c-.117 0-11.723-.009-14.646-.8a4.684 4.684 0 01-3.3-3.3 49.339 49.339 0 01-.771-9 49.329 49.329 0 01.771-9 4.785 4.785 0 013.3-3.331c2.893-.763 14.525-.771 14.643-.771s11.75.009 14.648.8a4.683 4.683 0 013.295 3.3 47.28 47.28 0 01.771 9.029 49.569 49.569 0 01-.771 9.008 4.688 4.688 0 01-3.295 3.3c-2.965.751-14.645.765-14.645.765zm-3.736-18.716h0v11.22l9.748-5.61z" fill="#fff" stroke="transparent" stroke-miterlimit="10"/></g></svg>